<?xml version='1.0' encoding='utf-8'?>
<svg xmlns="http://www.w3.org/2000/svg" width="210mm" height="297mm" version="1.1" viewBox="0 0 744.09 1052.4"> <defs> <linearGradient id="a" x1="417.19" x2="404.47" y1="537.59" y2="910.94" gradientUnits="userSpaceOnUse"> <stop stop-color="#fff" offset="0"/> <stop stop-color="#fff" offset="1"/> </linearGradient> </defs> <path d="m520.34 933.8c-10.136-1.5354-20.164-5.5402-28.4-11.343-3.7465-2.6392-9.9034-8.4523-12.945-12.221-5.0155-6.2165-9.8685-14.914-11.856-21.247l-1.147-3.6558-4.2181 0.21167c-4.4872 0.22514-16.99-0.22002-23.374-0.83227-5.5245-0.52977-13.465-1.5439-25.856-3.3024-18.112-2.5703-20.337-2.7714-30.567-2.7635-15.792 0.0122-27.214 1.4139-56.532 6.9379-13.645 2.5709-18.853 3.3283-24.624 3.5805l-4.8256 0.21093-1.2426 2.48c-7.76 15.487-23.246 26.902-42.015 30.971-9.1163 1.9761-21.692 2.6066-31.456 1.5772-19.248-2.0293-36.807-7.3878-57.105-17.427-12.99-6.4249-20.766-9.2726-32.5-11.901-10.582-2.3709-18.723-3.6069-39.475-5.9936-25.658-2.9509-35.584-5.0052-44.834-9.2786-6.4263-2.969-12.542-8.1975-15.521-13.269-3.3927-5.7765-4.6204-10.972-4.6159-19.534 5e-3 -9.0875 1.6961-17.716 5.9302-30.257 2.4644-7.299 2.7621-9.3048 2.509-16.904-0.15658-4.701-0.61029-8.8978-1.9638-18.166-2.681-18.357-2.992-24.643-1.5859-32.056 2.3338-12.303 10.283-22.912 22.057-29.438 3.944-2.186 7.447-3.6753 14.444-6.1407 16.011-5.6415 20.763-8.0484 25.566-12.95 2.9349-2.9955 4.0802-4.4291 11.113-13.911 7.0498-9.5042 9.1192-12.065 13.028-16.123l3.0804-3.1978-0.5682-4.6623c-0.78275-6.4226-1.066-21.112-0.5451-28.264 1.9045-26.149 9.3416-53.652 22.59-83.541 17.326-39.088 44.488-81.641 78.891-123.59 8.44-10.292 15.276-20.817 21.895-33.711 11.95-23.278 17.686-45.087 20.257-77.029 0.49589-6.1589 0.29221-12.706-1.0813-34.759-1.5157-24.335-1.7459-30.258-1.7554-45.159-9e-3 -13.635 0.28095-20.64 1.2528-30.298 5.3976-53.638 27.883-87.693 68.453-103.67 18.33-7.2206 41.497-10.852 65.501-10.267 21.665 0.52795 38.229 4.2179 54.322 12.102 9.7238 4.7635 17.597 10.399 25.356 18.149 23.17 23.144 36.199 59.203 39.958 110.59 1.0278 14.05 1.2392 23.249 1.2364 53.798-3e-3 36.679 0.12943 38.67 3.4972 52.418 4.665 19.043 13.744 37.077 29.978 59.545 6.0747 8.4073 17.087 22.519 25.218 32.314 37.547 45.235 62.517 87.123 75.937 127.39 13.522 40.574 15.01 79.615 4.3637 114.53-0.79101 2.5938-1.5033 4.9519-1.583 5.2401-0.10274 0.37197 0.55852 0.80686 2.2793 1.4989 3.5459 1.4262 9.4717 5.4905 12.764 8.7541 6.5667 6.5104 10.608 14.871 14.132 29.239 0.77532 3.161 2.2745 9.2842 3.3315 13.607 3.0232 12.364 5.6088 19.107 8.9951 23.458 0.83551 1.0735 3.0706 3.741 4.9668 5.9276 25.617 29.542 27.947 51.141 7.3056 67.746-6.487 5.2185-12.271 8.4888-34.858 19.71-9.4147 4.677-19.004 9.5639-21.31 10.86-16.609 9.3342-26.661 17.31-37.401 29.675-20.957 24.129-44.473 38.819-69.992 43.724-4.1102 0.79003-5.8422 0.92655-12.954 1.0211-5.8416 0.0777-9.1592-0.0349-11.502-0.38969zm15.869-10.656c14.064-1.322 28.451-6.8047 42.619-16.241 10.504-6.996 18.547-14.372 30.309-27.796 9.5273-10.874 20.565-19.543 36.415-28.602 5.1908-2.9667 9.7143-5.2551 34.41-17.407 16.714-8.2246 24.249-13.482 28.355-19.784 4.8165-7.393 3.4237-16.845-4.3255-29.352-3.355-5.4153-7.6845-11.027-15.612-20.237-5.2011-6.0422-8.5124-13.74-11.738-27.29-5.1484-21.625-6.1773-25.118-9.1786-31.162-3.265-6.5753-7.9705-11.234-14.574-14.429-5.9997-2.9029-7.8529-3.2292-19.337-3.4048l-9.905-0.15151-3.5445 3.5121c-11.398 11.294-27.728 20.371-42.321 23.525-5.136 1.11-13.567 1.113-17.403 6e-3 -6.1559-1.7766-10.083-4.0359-14.67-8.439-8.3007-7.969-14.028-20.656-15.859-35.128-0.31622-2.5001-0.61787-4.603-0.67031-4.6731-0.24737-0.33089-4.9631 2.6762-7.5477 4.813-6.1558 5.0892-10.846 12.559-14.198 22.615-4.5186 13.554-6.9168 30.651-8.5924 61.257-1.2124 22.145-1.9182 25.588-12.927 63.055-7.3709 25.086-10.009 38.744-10.053 52.051-0.0349 10.52 1.3147 16.439 5.4444 23.877 6.3289 11.399 14.892 19.874 24.747 24.492 9.1507 4.2882 19.214 5.9207 30.157 4.8921zm-294.39-9.788c11.097-1.2051 21.306-4.6694 29.063-9.8626 3.3659-2.2533 8.829-7.7156 11.08-11.079 3.517-5.2539 5.9386-11.226 7.4368-18.34 0.95197-4.5206 1.3124-12.774 0.71857-16.455-1.5603-9.6721-7.9114-22.833-17.936-37.168-4.2322-6.052-9.4375-12.825-20.674-26.899-16.538-20.714-21.948-28.244-26.735-37.204-1.0263-1.9214-9.009-16.541-17.739-32.488-17.467-31.905-17.879-32.561-25.227-40.131-6.0591-6.2416-11.174-10.126-16.611-12.612-7.5125-3.4363-16.299-4.5006-22.953-2.78-7.9569 2.0577-14.896 8.0015-24.65 21.113-10.524 14.147-12.633 16.756-16.563 20.48-5.9189 5.6101-11.463 8.5308-25.435 13.399-15.32 5.338-19.813 7.7409-24.905 13.32-3.7678 4.1283-6.3385 9.0153-7.3505 13.974-1.5561 7.6245-1.1733 13.117 2.6149 37.515 0.44573 2.8707 0.77524 7.176 0.89571 11.703 0.23927 8.9917-0.11117 11.194-3.3623 21.135-3.9686 12.134-5.4752 20.261-5.1487 27.772 0.30333 6.9802 1.7888 11.164 5.3172 14.975 6.8529 7.4019 17.727 10.677 45.401 13.674 30.037 3.253 41.897 5.298 56.069 9.6678 7.7246 2.3818 11.501 3.9403 22.707 9.3713 5.668 2.747 12.553 5.8809 15.3 6.9642 13.1 5.1662 25.912 8.4729 37.894 9.7804 5.2802 0.57616 16.25 0.66877 20.792 0.17551zm136.5-64.975c31.761-2.0876 63.026-13.227 92.809-33.065 2.44-1.6253 4.5777-3.1389 4.7505-3.3636 0.41316-0.53721 5.9789-20.168 7.7424-27.308 2.8778-11.652 3.2306-14.43 4.3902-34.584 2.3755-41.288 6.9762-61.845 17.321-77.392 2.7316-4.1054 9.2367-10.726 13.02-13.251 2.5808-1.7226 10.098-5.5893 10.88-5.5963 0.19535-3e-3 0.63775-1.8349 0.9831-4.0736 1.0883-7.0545 3.0453-12.071 6.3488-16.276 7.8774-10.025 23.301-11.7 44.19-4.7992 11.418 3.7723 26.989 11.486 35.728 17.699 3.6966 2.6281 9.8813 8.8072 11.39 11.379 2.8631 4.8819 3.7927 10.171 2.7078 15.405-0.31287 1.5096-0.56887 2.8122-0.56887 2.8947s1.5327 0.10494 3.406 0.05l3.406-0.1 0.57508-2.2707c3.6401-14.373-3.2269-26.85-21.532-39.122-6.7076-4.497-20.253-11.882-26.635-14.523-1.3001-0.53784-2.4943-1.088-2.6538-1.2226-0.15954-0.13463 0.0351-1.7457 0.43255-3.5802 8.9213-41.177-7.2623-92.185-42.804-134.91-4.2484-5.1072-15.603-16.817-16.621-17.139-0.36719-0.11654-1.0629 0.0509-1.5571 0.37474-1.8609 1.2193-0.42259 3.7257 5.8118 10.127 7.98 8.1942 12.301 13.593 18.595 23.231 22.245 34.067 30.852 71.294 23.813 103-0.84582 3.8101-3.324 12.004-3.8934 12.874-0.20859 0.31853-1.3216 0.20587-4.6314-0.46884-2.4494-0.49935-6.3397-0.98877-8.8859-1.118l-4.5291-0.22979-0.47004-2.4454c-6.1952-32.231-18.213-65.335-36.193-99.695-12.722-24.313-20.573-41.494-33.222-72.703-11.506-28.39-24.026-65.238-29.525-86.898-0.2073-0.81658-0.48876-1.4813-0.62546-1.4772-0.13669 4e-3 -0.67541 0.61116-1.1971 1.349-1.5974 2.2591-5.7863 6.5595-8.5738 8.8019-7.4473 5.9911-15.167 10.142-25.586 13.758-4.6891 1.6274-8.6225 3.6191-14.606 7.396-13.414 8.4669-19.959 11.983-26.482 14.227-8.5534 2.9426-17.887 4.1594-26.274 3.425-8.0948-0.70889-13.607-2.2331-19.973-5.5224-5.0136-2.5908-8.7019-5.3106-16.172-11.925-8.1431-7.2105-10.171-8.8097-14.846-11.705-2.1049-1.3036-5.0578-3.2269-6.562-4.2739-3.0651-2.1335-3.2784-2.0877-3.2895 0.70541-9e-3 2.3154-1.2341 12.564-2.1294 17.816-2.5822 15.148-6.105 28.74-12.178 46.986-8.0379 24.148-17.26 46.422-35.653 86.112-14.309 30.877-17.124 37.409-21.368 49.577-8.864 25.416-14.512 53.467-15.532 77.146-0.13044 3.0261-0.34034 5.5021-0.46645 5.5021s-1.3482-1.6899-2.7156-3.7554c-17.572-26.54-19.781-59.938-6.5593-99.14 3.3352-9.8885 6.3678-16.958 12.357-28.805 2.9624-5.8601 7.374-14.585 9.8034-19.388 4.9007-9.6896 7.3648-15.52 7.3648-17.428 0-2.5407-0.96622-1.5633-4.9691 5.0264-17.975 29.592-29.152 52.468-36.44 74.584-10.041 30.472-11.089 56.767-3.1192 78.302 4.2258 11.419 10.206 20.63 19.375 29.844 5.9192 5.9484 10.387 9.57 17.564 14.239 2.8552 1.8572 8.8032 5.7628 13.218 8.6792 36.777 24.296 60.519 51.08 64.973 73.298 0.61376 3.0615 0.53115 8.9995-0.16281 11.703-1.5575 6.0671-5.2748 10.559-11.093 13.405-4.2226 2.0653-7.9028 3.003-12.796 3.2605-2.1615 0.11375-3.9286 0.30134-3.9269 0.4169 2e-3 0.11556 1.4346 2.0179 3.1841 4.2275 5.5976 7.0695 13.368 17.563 16.926 22.859l3.4542 5.1408 4.0238 2.5329c8.2237 5.1768 16.509 9.4214 24.46 12.531 14.945 5.8444 27.662 8.6118 45.065 9.8062 3.8505 0.26424 11.824 0.19979 16.949-0.13705zm-16.6-458.12c10.693-1.4432 18.235-4.5536 31.615-13.039 11.28-7.1531 15.786-9.5732 20.96-11.255 23.566-7.6624 40.054-24.855 38.224-39.858-0.74235-6.0868-4.838-11.729-11.682-16.093-3.4929-2.2271-11.796-5.7008-23.223-9.7152-11.819-4.1521-14.98-5.5624-22.108-9.864-15.327-9.2486-26.838-13.296-39.201-13.784-8.0022-0.31549-14.653 0.87121-21.911 3.9096-7.1113 2.9769-13.608 7.4985-21.976 15.294-3.8667 3.6024-8.2508 7.146-15.022 12.142-13.488 9.9516-15.201 11.335-16.91 13.657-6.959 9.4531-2.6058 22.569 11.156 33.613 3.1991 2.5673 5.2777 3.9848 11.389 7.7668 4.0273 2.4923 8.4597 6.0033 14.494 11.481 10.223 9.2798 15.664 12.58 24.267 14.717 6.1229 1.5211 13.465 1.8996 19.928 1.0274zm-18.515-24.305c-7.945-0.97017-14.922-3.0503-22.183-6.614-7.7114-3.7846-14.399-8.3736-22.073-15.146-7.7486-6.8382-10.784-10.007-11.417-11.916-1.1164-3.3692-0.41171-6.0881 1.4563-5.6193 1.6186 0.40626 2.6914 1.4762 4.0908 4.0797 1.5072 2.8042 4.2128 5.6449 10.814 11.354 12.028 10.402 22.04 15.843 34.421 18.705 2.846 0.65793 4.3636 0.7686 10.655 0.77699 6.6663 9e-3 7.7348-0.0759 11.703-0.92875 8.1979-1.762 17.729-5.2815 27.423-10.126 10.991-5.493 15.605-8.3734 27.248-17.008 7.4119-5.4968 7.9998-6.0209 10.685-9.5255 2.2141-2.8892 3.587-3.6937 5.5629-3.2597 4.392 0.96464-0.96661 7.6963-13.803 17.34-7.887 5.9252-12.786 8.8707-24.592 14.785-12.209 6.1164-17.764 8.4122-25.887 10.699-7.77 2.1874-17.736 3.1812-24.104 2.4036zm-12.667-68.342c-2.3038-0.95548-2.1476-3.1711 0.3384-4.7999 0.72819-0.4771 2.5816-1.2872 4.1187-1.8003 2.2644-0.75588 3.217-0.89927 5.02-0.75563 2.2969 0.18297 3.9588 1.0198 4.1715 2.1006 0.18245 0.92693-1.1661 1.9093-3.201 2.3317-1.205 0.25016-2.8209 0.98494-4.2943 1.9526-2.6105 1.7146-3.8782 1.9146-6.1534 0.97094zm40.814-0.85793c-1.1546-0.82682-2.85-1.6551-3.9869-1.9479-2.6109-0.67238-3.5501-1.3081-3.5501-2.4028 0-0.69948 0.30774-1.0221 1.4847-1.5563 2.6901-1.2211 6.8163-0.65752 10.823 1.4782 3.4115 1.8183 3.9239 4.2032 1.1519 5.3614-2.1646 0.90444-3.6937 0.66367-5.923-0.93266zm-71.729 1.6883c2.2571-1.7096 4.189-3.2461 4.293-3.4144 0.10401-0.1683-0.45911-0.89164-1.2514-1.6074-5.4376-4.9126-8.7947-15.452-8.2592-25.93 1.0774-21.081 15.856-26.939 24.072-9.5433 2.3079 4.8866 3.121 8.7249 3.3268 15.705 0.0977 3.3143 0.2341 6.0261 0.30308 6.0261 0.069 0 0.87448-0.46042 1.79-1.0232 2.6539-1.6312 7.3175-3.7682 11.097-5.0848l3.4934-1.217-0.0214-6.9049c-0.0238-7.6668-0.57215-12.057-2.2522-18.033-4.1393-14.723-12.742-25.661-22.848-29.048-3.1261-1.0478-8.0556-1.2874-11.21-0.54485-4.812 1.1329-10.268 5.0676-14.154 10.208-4.0084 5.3018-7.4086 13.716-8.9425 22.129-0.96596 5.2979-0.8802 17.691 0.16185 23.388 2.0382 11.143 6.4488 21.029 12.282 27.53l1.8044 2.0111 1.1053-0.76862c0.60791-0.42274 2.952-2.1674 5.2092-3.8771zm141.76 1.0602c7.9508-11.292 11.787-25.678 10.798-40.493-0.65249-9.77-2.376-16.263-6.6291-24.976-4.8649-9.9658-11.633-17.061-20.431-21.421-5.2802-2.6162-8.3178-3.2992-14.672-3.2994-7.6375-1.7e-4 -12.593 1.4415-18.722 5.4469-4.0741 2.6624-10.278 8.7904-12.847 12.691-4.2354 6.4288-7.7706 15.322-9.1746 23.08-0.60829 3.3613-0.76132 5.6213-0.79087 11.679-0.0202 4.1309 0.0838 8.0758 0.231 8.7664 0.2537 1.1903 0.37202 1.2787 2.2707 1.6967 3.5425 0.77993 11.674 3.4174 15.569 5.0495l3.7845 1.586-0.26145-1.4753c-0.4432-2.5007-0.25599-10.391 0.32506-13.702 0.713-4.0625 1.6561-6.9373 3.5527-10.829 2.6576-5.454 6.5284-9.3605 10.913-11.013 2.8717-1.0826 7.1944-0.87468 9.9617 0.47924 8.74 4.2761 14.145 18.236 12.507 32.299-0.91611 7.862-2.5807 12.003-6.4545 16.058l-2.6626 2.7869 0.96487 0.36263c0.53068 0.19946 3.3773 1.2518 6.3257 2.3386s7.1143 2.7351 9.2574 3.663c2.1431 0.92785 4.0104 1.7032 4.1495 1.7229 0.13907 0.0197 1.0554-1.1038 2.0363-2.4968z"/> <path d="m348.21 845.63c-35.036-6.2041-56.383-18.186-72.338-40.602-8.5046-11.949-8.845-13.162-3.6932-13.162 3.1212 0 9.2041-3.0357 13.518-6.7461 22.008-18.931-3.2578-60.047-60.864-99.047-40.257-27.254-53.346-50.364-50.466-89.102 1.4022-18.862 12.108-58.962 14.976-56.094 0.58109 0.58108-0.94881 10.516-3.3998 22.079-5.5984 26.41-3.5706 49.177 6.2595 70.277 8.7656 18.815 10.171 17.018 14.861-19.01 3.6894-28.342 13.125-55.603 39.345-113.68 23.267-51.536 33.514-80.329 40.103-112.68l4.8038-23.587 18.2 13.95c21.643 16.589 35.581 21.784 52.297 19.492 12.842-1.7602 75.125-32.332 84.39-41.423 5.2996-5.2 5.6167-4.6392 17.297 30.586 15.789 47.614 20.195 58.306 48.099 116.72 13.496 28.252 26.948 61.228 31.153 76.368 4.07 14.655 7.8944 28.237 8.4988 30.181 0.60568 1.9488 5.5574 3.5355 11.033 3.5355 8.4246 0 10.265-1.1821 12.11-7.7782 4.3831-15.673 2.0054-55.043-4.3865-72.632-7.7727-21.389-5.5141-24.248 3.2934-4.1702 10.152 23.144 14.329 43.983 13.895 69.326l-0.39264 22.929 13.73 6.4307c24.798 11.615 40.941 32.076 35.169 44.578-1.8126 3.9257-2.4986 3.0809-3.2998-4.0633-1.8647-16.628-30.735-36.672-62.694-43.526-12.289-2.6356-15.871-2.3333-24.957 2.1065-6.99 3.4155-11.573 8.0968-13.437 13.724-1.5556 4.697-9.3965 14.879-17.424 22.627-17.758 17.14-22.138 30.22-26.501 79.141-3.36 37.679-9.9859 66.014-16.711 71.461-8.8772 7.1907-50.054 25.622-63.815 28.565-21.658 4.6313-43.854 5.8556-58.652 3.2353z" fill="#ffb046" stroke="#000" stroke-width="14.425"/> <path d="m511.14 919.06c-11.868-3.6651-28.298-22.367-32.12-36.562-3.6318-13.487-1.0188-31.069 11.369-76.494 4.6872-17.188 9.3501-43.997 11.069-63.64 3.5445-40.507 6.4936-52.168 16.072-63.552 8.4086-9.993 12.368-10.891 12.368-2.8036 0 8.626 10.141 26.839 18.687 33.561 14.439 11.358 43.906 5.9204 65.16-12.023 7.0598-5.9603 11.839-7.5084 23.177-7.5084 21.096 0 27.166 6.5485 36.707 39.6 5.694 19.726 10.879 31.008 19.498 42.426 25.729 34.086 23.407 40.142-25.015 65.249-28.538 14.797-39.187 22.265-61.06 42.82-14.571 13.694-33.039 28.215-41.04 32.269-16.062 8.1393-40.479 11.102-54.871 6.6572z" fill="#ffbc00" stroke="#000" stroke-width="14.425"/> <path d="m213.36 910.39c-8.4234-1.4549-27.515-7.8774-42.426-14.272-25.822-11.074-33.656-12.9-97.043-22.624-25.222-3.8692-33.306-10.235-33.306-26.228 0-6.6402 1.9131-18.321 4.2513-25.958 3.5691-11.657 3.7307-18.269 1.007-41.21-4.3133-36.33-1.147-42.438 28.382-54.755 22.607-9.4297 25.774-11.92 47.844-37.615 13.739-15.996 15.976-17.483 26.303-17.483 23.386 0 31.916 8.3987 59.802 58.883 11.408 20.653 30.639 50.254 42.734 65.778 25.525 32.763 38.579 56.034 38.579 68.774 0 4.9571-2.8638 14.692-6.364 21.633-10.848 21.512-36.668 30.794-69.762 25.077z" fill="#ffbc00" stroke="#000" stroke-width="14.425"/> <path d="m347.76 390.07c-8.9703-1.179-21.399-8.0126-32.75-18.006-3.1625-2.7844-8.9317-7.172-12.82-9.7502-13.473-8.9325-18.352-13.669-22.336-21.684-1.995-4.0136-2.0936-4.426-2.0936-8.75 0-5.2325 0.91851-7.8112 3.9954-11.217 1.0219-1.1312 7.066-5.9661 13.431-10.744 6.3653-4.7783 14.161-11.001 17.323-13.827 10.271-9.1807 16.347-13.236 24.037-16.042 6.1983-2.2621 10.294-2.9569 17.43-2.9569 13.564 0 22.78 2.9814 40.783 13.194 8.4118 4.7716 11.487 6.1078 29 12.601 17.736 6.5763 23.336 10.397 27.103 18.49 1.8327 3.9382 1.8944 9.8922 0.14968 14.465-1.4004 3.6706-4.5522 8.6246-7.7002 12.103-5.7989 6.4081-17.325 13.535-28.278 17.484-5.424 1.956-11.662 5.1695-19.137 9.8586-5.0856 3.1903-17.476 8.9186-27.138 12.546-6.9688 2.6164-13.123 3.2719-21 2.2366zm7.0382-24.026c11.381-1.1406 20.399-4.1438 36.722-12.229 13.258-6.567 18.622-9.7386 26.427-15.628 13.573-10.24 18.901-17.596 12.745-17.596-1.3785 0-2.1393 0.38152-3.3574 1.6837-0.86625 0.92602-2.6322 2.8171-3.9243 4.2024-2.8308 3.035-16.512 13.081-23.853 17.515-11.032 6.6634-25.361 12.908-35.787 15.596-5.4086 1.3946-6.4667 1.5029-14.67 1.5017-9.9329-1e-3 -13.909-0.75758-22.028-4.1888-11.701-4.9453-28.344-17.934-33.857-26.423-2.1861-3.3663-3.7026-4.3794-5.5146-3.6841-0.65516 0.25141-0.77027 0.86998-0.59999 3.2241 0.26234 3.6269 1.594 5.3694 9.4662 12.387 13.414 11.958 25.044 18.79 37.405 21.974 8.3832 2.1596 12.554 2.4928 20.826 1.6638zm-18.195-69.137c1.7468-0.92669 3.8796-1.8394 4.7397-2.0283 1.8802-0.41295 3.3039-1.8491 2.8935-2.9187-1.2546-3.2694-11.966-1.7115-14.828 2.1567-1.1876 1.605-0.75039 2.8678 1.3022 3.7613 2.168 0.94377 2.3362 0.91605 5.8931-0.97093zm40.673 0.96041c1.4127-0.59024 1.7339-0.99279 1.7339-2.1725 0-1.6616-0.84091-2.5291-3.9853-4.1112-2.5792-1.2977-7.6066-1.843-9.6525-1.0469-2.9054 1.1306-2.0186 3.4013 1.7709 4.5348 1.1643 0.34824 2.7121 1.0563 3.4395 1.5734 2.8098 1.9976 4.2212 2.2553 6.6935 1.2223z" fill="#ff942a" stroke="#000" stroke-width="2.55"/> <path d="m327.82 831.43c-19.112-6.7254-37.821-19.077-42.698-28.19-2.2902-4.2792-1.2052-6.6524 5.6961-12.459 23.453-19.734 6.6544-59.491-40.534-95.928-12.088-9.3338-28.337-21.861-36.108-27.839l-14.131-10.868 5.6492-6.1026c3.7757-4.0787 6.7685-13.586 9.0242-28.669 4.7405-31.696 11.518-52.266 35.9-108.96 25.673-59.691 35.196-85.336 41.724-112.36l4.9365-20.432 8.906 6.6735c17.793 13.333 33.78 19.684 49.204 19.547 12.439-0.11023 21.019-3.1726 52.977-18.908 20.974-10.327 38.796-18.776 39.605-18.776 0.80869 0 1.4703 1.2932 1.4703 2.8738 0 7.6508 28.115 78.931 49.853 126.39 13.393 29.241 29.084 67.706 34.87 85.476l10.52 32.31-11.559 12.016c-27.628 28.722-41.965 49.021-47.065 66.635-1.5068 5.2044-4.6614 26.009-7.0102 46.232-2.3487 20.223-6.2028 43.501-8.5647 51.728-4.9727 17.321-10.002 21.222-45.085 34.973-18.658 7.3126-27.589 9.0634-50.912 9.9799-24.072 0.94599-31.022 0.14792-46.669-5.3579z" fill="url(#a)" stroke="#000" stroke-width="14.425"/> </svg>